<svg width="32" height="32" viewBox="0 0 32 32" fill="#fff" xmlns="http://www.w3.org/2000/svg">
<g clip-path="url(#clip0_1_2)">
<path d="M27.6364 0H4.36364C3.20633 0 2.09642 0.459739 1.27808 1.27808C0.459739 2.09642 0 3.20633 0 4.36364L0 27.6364C0 28.7937 0.459739 29.9036 1.27808 30.7219C2.09642 31.5403 3.20633 32 4.36364 32H27.6364C28.7937 32 29.9036 31.5403 30.7219 30.7219C31.5403 29.9036 32 28.7937 32 27.6364V4.36364C32 3.20633 31.5403 2.09642 30.7219 1.27808C29.9036 0.459739 28.7937 0 27.6364 0ZM10.9091 25.3236C10.9093 25.4124 10.8921 25.5003 10.8583 25.5823C10.8245 25.6644 10.7748 25.739 10.7122 25.8018C10.6495 25.8646 10.5751 25.9145 10.4931 25.9485C10.4111 25.9825 10.3233 26 10.2345 26H7.36C7.27111 26.0002 7.18305 25.9829 7.10088 25.949C7.01872 25.9151 6.94406 25.8653 6.8812 25.8024C6.81835 25.7396 6.76854 25.6649 6.73463 25.5828C6.70073 25.5006 6.6834 25.4125 6.68364 25.3236V13.2727C6.68364 13.0933 6.7549 12.9213 6.88174 12.7945C7.00858 12.6676 7.18062 12.5964 7.36 12.5964H10.2345C10.4136 12.5968 10.5852 12.6683 10.7116 12.7951C10.8381 12.9219 10.9091 13.0937 10.9091 13.2727V25.3236ZM8.79636 11.4545C8.25696 11.4545 7.72967 11.2946 7.28117 10.9949C6.83267 10.6952 6.48311 10.2693 6.27669 9.77095C6.07027 9.27261 6.01626 8.72425 6.12149 8.19521C6.22673 7.66617 6.48648 7.18022 6.86789 6.7988C7.24931 6.41738 7.73526 6.15764 8.2643 6.0524C8.79334 5.94717 9.3417 6.00118 9.84005 6.2076C10.3384 6.41402 10.7643 6.76358 11.064 7.21208C11.3637 7.66058 11.5236 8.18787 11.5236 8.72727C11.5236 9.45059 11.2363 10.1443 10.7248 10.6557C10.2134 11.1672 9.51968 11.4545 8.79636 11.4545ZM25.9345 25.3709C25.9348 25.4526 25.9189 25.5336 25.8877 25.6092C25.8565 25.6847 25.8107 25.7533 25.753 25.8111C25.6952 25.8689 25.6265 25.9147 25.551 25.9459C25.4754 25.977 25.3945 25.993 25.3127 25.9927H22.2218C22.1401 25.993 22.0591 25.977 21.9836 25.9459C21.908 25.9147 21.8394 25.8689 21.7816 25.8111C21.7238 25.7533 21.678 25.6847 21.6468 25.6092C21.6157 25.5336 21.5998 25.4526 21.6 25.3709V19.7255C21.6 18.8818 21.8473 16.0309 19.3945 16.0309C17.4945 16.0309 17.1073 17.9818 17.0309 18.8582V25.3782C17.0309 25.5415 16.9667 25.6983 16.852 25.8147C16.7374 25.931 16.5815 25.9976 16.4182 26H13.4327C13.3512 26 13.2704 25.9839 13.195 25.9526C13.1197 25.9214 13.0513 25.8755 12.9937 25.8178C12.9361 25.76 12.8904 25.6914 12.8594 25.616C12.8283 25.5406 12.8125 25.4598 12.8127 25.3782V13.22C12.8125 13.1384 12.8283 13.0576 12.8594 12.9822C12.8904 12.9067 12.9361 12.8382 12.9937 12.7804C13.0513 12.7227 13.1197 12.6768 13.195 12.6455C13.2704 12.6143 13.3512 12.5982 13.4327 12.5982H16.4182C16.5831 12.5982 16.7413 12.6637 16.8579 12.7803C16.9745 12.8969 17.04 13.0551 17.04 13.22V14.2709C17.7455 13.2109 18.7909 12.3964 21.0218 12.3964C25.9636 12.3964 25.9309 17.0109 25.9309 19.5455L25.9345 25.3709Z" fill="#fff"/>
</g>
<defs>
<clipPath id="clip0_1_2">
<rect width="32" height="32" fill="#fff"/>
</clipPath>
</defs>
</svg>
