<svg xmlns="http://www.w3.org/2000/svg" xmlns:xlink="http://www.w3.org/1999/xlink" id="Layer_1" x="0px" y="0px" viewBox="0 0 1753.8 320" style="enable-background:new 0 0 1753.8 320;" xml:space="preserve"><style type="text/css">	.st0{fill-rule:evenodd;clip-rule:evenodd;fill:#009BDF;}	.st1{fill:#009BDF;}</style><g>	<g>		<polygon class="st0" points="821.1,106.4 805,106.4 805,213.6 821.1,213.6 821.1,106.4   "></polygon>		<polygon class="st0" points="1402.7,122.5 1402.7,213.6 1418.8,213.6 1418.8,122.5 1496.5,122.5 1496.5,106.4 1325,106.4     1325,122.5 1402.7,122.5   "></polygon>		<polygon class="st0" points="1558.1,106.4 1550.1,114.4 1550.1,205.6 1558.1,213.6 1705.5,213.6 1705.5,197.5 1566.2,197.5     1566.2,168 1705.5,168 1705.5,152 1566.2,152 1566.2,122.5 1705.5,122.5 1705.5,106.4 1558.1,106.4   "></polygon>		<polygon class="st0" points="1099.8,160 1107.8,168 1177.5,168 1177.5,213.6 1193.6,213.6 1193.6,168 1263.3,168 1271.3,160     1271.3,106.4 1255.3,106.4 1255.3,152 1115.9,152 1115.9,106.4 1099.8,106.4 1099.8,160   "></polygon>		<polygon class="st0" points="595.9,152 712.4,152 733.6,106.4 751.4,106.4 726.4,160 751.4,213.6 733.6,213.6 712.4,168     595.9,168 595.9,213.6 579.8,213.6 579.8,106.4 595.9,106.4 595.9,152   "></polygon>		<path class="st0" d="M526.2,114.4l-8-8H362.7l-8,8v99.2h16.1V168h139.4v45.6h16.1V114.4L526.2,114.4z M370.8,122.5V152h139.4    v-29.5H370.8L370.8,122.5z"></path>		<path class="st0" d="M1046.2,168l-8-8l8-8v-37.5l-8-8H874.7v107.2h163.5l8-8V168L1046.2,168z M890.7,168v29.5h139.4V168H890.7    L890.7,168z M890.7,122.5V152h139.4v-29.5H890.7L890.7,122.5z"></path>	</g>	<g>		<polygon class="st1" points="173.3,237.7 173.3,217 131.8,217 129.8,215 98.1,183.6 98.1,107.6 77.9,127.8 77.9,192.2     123.4,237.7   "></polygon>		<polygon class="st1" points="213,65.7 213,94.2 233.3,114.4 233.3,85.9   "></polygon>		<polygon class="st1" points="242.8,95.4 242.8,224.6 262.9,204.5 262.9,115.5   "></polygon>		<polygon class="st1" points="233.3,127.8 187.7,82.3 137.9,82.3 137.9,103 179.4,103 181.4,105 213,136.4 213,138.3 213,237.7     229.7,237.7 233.3,234.1   "></polygon>		<path class="st1" d="M203.5,140.3l-28.1-27.8h-47.1V52.7h-17.3l-3.5,3.5v123.5l28.1,27.8h39.8l28.1-27.8V140.3z M182.8,171.3    l-15.9,15.9h-22.5l-15.9-15.9v-22.5l15.9-15.9h22.5l15.9,15.9V171.3z"></path>		<polygon class="st1" points="173.3,267.3 173.3,247.2 119.4,247.2 68.4,196.1 68.4,123.9 98.1,94.2 98.1,65.7 48.2,115.5     48.2,204.5 111.1,267.3   "></polygon>		<polygon class="st1" points="203.5,84.7 203.5,56.2 200,52.7 137.9,52.7 137.9,72.8 191.7,72.8   "></polygon>	</g></g></svg>