<svg width="32" height="32" viewBox="0 0 32 32" fill="none" xmlns="http://www.w3.org/2000/svg">
<g clip-path="url(#clip0_1_11)">
<path d="M25.4375 0H6.5625C2.94394 0 0 2.94394 0 6.5625V25.4375C0 29.0561 2.94394 32 6.5625 32H25.4375C29.0561 32 32 29.0561 32 25.4375V6.5625C32 2.94394 29.0561 0 25.4375 0ZM23.419 9.125L15.9974 16.5466L8.57581 9.125H23.419ZM6.42212 21.1271C6.35004 20.9918 6.31239 20.8408 6.3125 20.6875V10.0625C6.3125 9.90362 6.35237 9.75406 6.42212 9.62294L12.1742 15.375L6.42212 21.1271ZM8.57581 21.625L13.5 16.7008L15.9974 19.1982L18.4974 16.6982L23.4242 21.625H8.57581ZM25.6875 20.6875C25.6875 20.8464 25.6476 20.9959 25.5779 21.1271L19.8232 15.3724L25.5761 9.61944C25.6494 9.7556 25.6877 9.90786 25.6875 10.0625V20.6875Z" fill="#fff"/>
</g>
<defs>
<clipPath id="clip0_1_11">
<rect width="32" height="32" fill="white"/>
</clipPath>
</defs>
</svg>
