<svg width="24" height="24" viewBox="0 0 24 24" fill="none" xmlns="http://www.w3.org/2000/svg">
<path d="M23.9975 12.4492C24.003 12.3686 23.9994 12.2874 23.9867 12.2078L23.9851 12.2017C23.9668 12.1049 23.935 12.0122 23.8907 11.9269C23.8552 11.8538 23.8112 11.7865 23.7599 11.7267L16.3109 3.28631C16.2346 3.19673 16.1432 3.12529 16.0423 3.07614C15.9413 3.02699 15.8327 3.00112 15.7228 3.00004C15.6129 2.99895 15.5039 3.02268 15.4022 3.06984C15.3004 3.11699 15.208 3.18663 15.1303 3.27468C15.0526 3.36274 14.9912 3.46744 14.9495 3.5827C14.9079 3.69795 14.887 3.82144 14.8879 3.94597C14.8889 4.07049 14.9117 4.19355 14.9551 4.30797C14.9985 4.42238 15.0615 4.52587 15.1406 4.61238L21.1768 11.4519H0.827671C0.608159 11.4519 0.397638 11.5507 0.242419 11.7266C0.0872009 11.9024 0 12.141 0 12.3897C0 12.6384 0.0872009 12.877 0.242419 13.0528C0.397638 13.2287 0.608159 13.3275 0.827671 13.3275H21.1768L15.1406 20.167C15.0615 20.2535 14.9985 20.357 14.9551 20.4714C14.9117 20.5858 14.8889 20.7089 14.8879 20.8334C14.887 20.9579 14.9079 21.0814 14.9495 21.1967C14.9912 21.3119 15.0526 21.4167 15.1303 21.5047C15.208 21.5928 15.3004 21.6624 15.4022 21.7096C15.5039 21.7567 15.6129 21.7804 15.7228 21.7794C15.8327 21.7783 15.9413 21.7524 16.0423 21.7033C16.1432 21.6541 16.2346 21.5827 16.3109 21.4931L23.7599 13.0527C23.7724 13.0387 23.7811 13.0227 23.7922 13.0077C23.8046 12.9918 23.8162 12.9754 23.8278 12.958C23.8717 12.8951 23.9083 12.8261 23.9367 12.7526C23.9375 12.7508 23.9387 12.7498 23.9391 12.7479L23.9396 12.7465C23.9731 12.6517 23.9927 12.5513 23.9975 12.4492Z" fill="black"/>
</svg>
